# Blender v2.81 (sub 16) OBJ File: 'RoomScale.blend'
# www.blender.org
v -0.001000 0.000000 0.001000
v 0.001000 0.000000 0.001000
v -0.001000 0.000000 -0.001000
v 0.001000 0.000000 -0.001000
v 0.041000 0.000000 -0.021000
v 0.039000 0.000000 -0.021000
v 0.041000 0.000000 -0.019000
v 0.039000 0.000000 -0.019000
v -0.001000 0.000000 0.041000
v 0.001000 0.000000 0.041000
v -0.001000 0.000000 0.039000
v 0.001000 0.000000 0.039000
v -0.012000 0.000000 -0.040000
v -0.010000 0.000000 -0.040000
v -0.012000 0.000000 -0.042000
v -0.010000 0.000000 -0.042000
v 0.033000 0.000000 0.031000
v 0.035000 0.000000 0.031000
v 0.033000 0.000000 0.029000
v 0.035000 0.000000 0.029000
v -0.041000 0.000000 0.021000
v -0.039000 0.000000 0.021000
v -0.041000 0.000000 0.019000
v -0.039000 0.000000 0.019000
vn 0.0000 1.0000 0.0000
s off
f 3//1 1//1 2//1 4//1
f 6//1 8//1 7//1 5//1
f 11//1 9//1 10//1 12//1
f 15//1 13//1 14//1 16//1
f 19//1 17//1 18//1 20//1
f 23//1 21//1 22//1 24//1
