# Blender v2.83.3 OBJ File: 'RoomScale.blend'
# www.blender.org
v -0.001000 0.000000 0.046720
v 0.001000 0.000000 0.046720
v -0.001000 0.000000 0.044720
v 0.001000 0.000000 0.044720
v 0.021840 0.000000 -0.044720
v 0.023840 0.000000 -0.044720
v 0.021840 0.000000 -0.046720
v 0.023840 0.000000 -0.046720
v -0.001000 0.000000 0.001000
v 0.001000 0.000000 0.001000
v -0.001000 0.000000 -0.001000
v 0.001000 0.000000 -0.001000
v 0.044720 0.000000 0.046720
v 0.046720 0.000000 0.046720
v 0.044720 0.000000 0.044720
v 0.046720 0.000000 0.044720
v -0.046720 0.000000 0.046720
v -0.044720 0.000000 0.046720
v -0.046720 0.000000 0.044720
v -0.044720 0.000000 0.044720
v -0.021860 0.000000 -0.046720
v -0.023860 0.000000 -0.046720
v -0.021860 0.000000 -0.044720
v -0.023860 0.000000 -0.044720
vn 0.0000 1.0000 0.0000
s off
f 3//1 1//1 2//1 4//1
f 7//1 5//1 6//1 8//1
f 11//1 9//1 10//1 12//1
f 15//1 13//1 14//1 16//1
f 19//1 17//1 18//1 20//1
f 22//1 24//1 23//1 21//1
