# Blender v2.83.3 OBJ File: 'RoomScale.blend'
# www.blender.org
v 0.041000 0.000000 -0.001000
v 0.041000 0.000000 0.001000
v -0.041000 0.000000 -0.001000
v -0.041000 0.000000 0.001000
v -0.001000 0.000000 -0.041000
v 0.001000 0.000000 -0.041000
v -0.001000 0.000000 -0.001000
v 0.001000 0.000000 -0.001000
v -0.001000 0.000000 0.001000
v 0.001000 0.000000 0.001000
v -0.039000 0.000000 0.001000
v -0.039000 0.000000 -0.001000
v 0.039000 0.000000 -0.001000
v 0.039000 0.000000 0.001000
v -0.001000 0.000000 -0.039000
v 0.001000 0.000000 -0.039000
vn 0.0000 1.0000 0.0000
s off
f 1//1 13//1 14//1 2//1
f 12//1 3//1 4//1 11//1
f 9//1 10//1 8//1 7//1
f 16//1 6//1 5//1 15//1
